<mxfile host="app.diagrams.net" modified="2021-02-16T07:54:30.056Z" agent="5.0 (Macintosh; Intel Mac OS X 10_14_6) AppleWebKit/537.36 (KHTML, like Gecko) Chrome/88.0.4324.150 Safari/537.36" etag="HmCKhLRHQAwgwzyzQG0M" version="14.3.2" type="github">
  <diagram id="EE_hZTiAwyeK2e7w2kGB" name="Page-1">
    <mxGraphModel dx="798" dy="723" grid="1" gridSize="10" guides="1" tooltips="1" connect="1" arrows="1" fold="1" page="1" pageScale="1" pageWidth="827" pageHeight="1169" math="0" shadow="0">
      <root>
        <mxCell id="0" />
        <mxCell id="1" parent="0" />
        <mxCell id="eklVB8qWqyaPvLmpEpbN-3" value="&lt;font style=&quot;font-size: 18px&quot;&gt;财务中台&lt;/font&gt;" style="text;html=1;align=center;verticalAlign=middle;resizable=0;points=[];autosize=1;" parent="1" vertex="1">
          <mxGeometry x="369" y="30" width="90" height="20" as="geometry" />
        </mxCell>
        <mxCell id="eklVB8qWqyaPvLmpEpbN-4" value="" style="rounded=0;whiteSpace=wrap;html=1;" parent="1" vertex="1">
          <mxGeometry x="10" y="70" width="90" height="700" as="geometry" />
        </mxCell>
        <mxCell id="VR6JVq2bD84jiu32urEA-1" value="&lt;font style=&quot;font-size: 12px&quot;&gt;集团接入&lt;/font&gt;" style="rounded=0;whiteSpace=wrap;html=1;" vertex="1" parent="1">
          <mxGeometry x="120" y="70" width="130" height="40" as="geometry" />
        </mxCell>
        <mxCell id="VR6JVq2bD84jiu32urEA-2" value="&lt;font style=&quot;font-size: 12px&quot;&gt;外部合作方&lt;/font&gt;" style="rounded=0;whiteSpace=wrap;html=1;" vertex="1" parent="1">
          <mxGeometry x="292" y="70" width="120" height="40" as="geometry" />
        </mxCell>
        <mxCell id="VR6JVq2bD84jiu32urEA-3" value="&lt;font style=&quot;font-size: 12px&quot;&gt;移动终端&lt;/font&gt;" style="rounded=0;whiteSpace=wrap;html=1;" vertex="1" parent="1">
          <mxGeometry x="454" y="70" width="130" height="40" as="geometry" />
        </mxCell>
        <mxCell id="VR6JVq2bD84jiu32urEA-5" value="&lt;font style=&quot;font-size: 12px&quot;&gt;运营管理&lt;br&gt;pay-admin&lt;br&gt;&lt;/font&gt;" style="rounded=0;whiteSpace=wrap;html=1;" vertex="1" parent="1">
          <mxGeometry x="15" y="80" width="80" height="40" as="geometry" />
        </mxCell>
        <mxCell id="VR6JVq2bD84jiu32urEA-6" value="路由配置" style="rounded=0;whiteSpace=wrap;html=1;" vertex="1" parent="1">
          <mxGeometry x="15" y="130" width="80" height="40" as="geometry" />
        </mxCell>
        <mxCell id="VR6JVq2bD84jiu32urEA-7" value="支付配置" style="rounded=0;whiteSpace=wrap;html=1;" vertex="1" parent="1">
          <mxGeometry x="15" y="180" width="80" height="40" as="geometry" />
        </mxCell>
        <mxCell id="VR6JVq2bD84jiu32urEA-9" value="账务配置" style="rounded=0;whiteSpace=wrap;html=1;" vertex="1" parent="1">
          <mxGeometry x="15" y="230" width="80" height="40" as="geometry" />
        </mxCell>
        <mxCell id="VR6JVq2bD84jiu32urEA-10" value="清分公式" style="rounded=0;whiteSpace=wrap;html=1;" vertex="1" parent="1">
          <mxGeometry x="15" y="280" width="80" height="40" as="geometry" />
        </mxCell>
        <mxCell id="VR6JVq2bD84jiu32urEA-11" value="主数据录入" style="rounded=0;whiteSpace=wrap;html=1;" vertex="1" parent="1">
          <mxGeometry x="15" y="330" width="80" height="40" as="geometry" />
        </mxCell>
        <mxCell id="VR6JVq2bD84jiu32urEA-12" value="工作流审批" style="rounded=0;whiteSpace=wrap;html=1;" vertex="1" parent="1">
          <mxGeometry x="15" y="380" width="80" height="40" as="geometry" />
        </mxCell>
        <mxCell id="VR6JVq2bD84jiu32urEA-13" value="路由控制" style="rounded=0;whiteSpace=wrap;html=1;" vertex="1" parent="1">
          <mxGeometry x="15" y="430" width="80" height="40" as="geometry" />
        </mxCell>
        <mxCell id="VR6JVq2bD84jiu32urEA-14" value="支付工具" style="rounded=0;whiteSpace=wrap;html=1;" vertex="1" parent="1">
          <mxGeometry x="15" y="480" width="80" height="40" as="geometry" />
        </mxCell>
        <mxCell id="VR6JVq2bD84jiu32urEA-15" value="报警信息" style="rounded=0;whiteSpace=wrap;html=1;" vertex="1" parent="1">
          <mxGeometry x="15" y="530" width="80" height="40" as="geometry" />
        </mxCell>
        <mxCell id="VR6JVq2bD84jiu32urEA-16" value="订单查询" style="rounded=0;whiteSpace=wrap;html=1;" vertex="1" parent="1">
          <mxGeometry x="15" y="580" width="80" height="40" as="geometry" />
        </mxCell>
        <mxCell id="VR6JVq2bD84jiu32urEA-17" value="" style="rounded=0;whiteSpace=wrap;html=1;" vertex="1" parent="1">
          <mxGeometry x="600" y="70" width="100" height="700" as="geometry" />
        </mxCell>
        <mxCell id="VR6JVq2bD84jiu32urEA-18" value="" style="rounded=0;whiteSpace=wrap;html=1;" vertex="1" parent="1">
          <mxGeometry x="720" y="70" width="100" height="700" as="geometry" />
        </mxCell>
        <mxCell id="VR6JVq2bD84jiu32urEA-19" value="" style="rounded=0;whiteSpace=wrap;html=1;" vertex="1" parent="1">
          <mxGeometry x="120" y="130" width="464" height="40" as="geometry" />
        </mxCell>
        <mxCell id="VR6JVq2bD84jiu32urEA-20" value="&lt;font style=&quot;font-size: 12px&quot;&gt;开放网关&lt;/font&gt;" style="rounded=0;whiteSpace=wrap;html=1;fillColor=none;strokeColor=none;" vertex="1" parent="1">
          <mxGeometry x="120" y="130" width="70" height="40" as="geometry" />
        </mxCell>
        <mxCell id="VR6JVq2bD84jiu32urEA-21" value="&lt;font style=&quot;font-size: 12px&quot;&gt;协议转换&lt;/font&gt;" style="rounded=0;whiteSpace=wrap;html=1;" vertex="1" parent="1">
          <mxGeometry x="210" y="135" width="70" height="30" as="geometry" />
        </mxCell>
        <mxCell id="VR6JVq2bD84jiu32urEA-22" value="&lt;font style=&quot;font-size: 12px&quot;&gt;校验鉴权&lt;/font&gt;" style="rounded=0;whiteSpace=wrap;html=1;" vertex="1" parent="1">
          <mxGeometry x="310" y="135" width="70" height="30" as="geometry" />
        </mxCell>
        <mxCell id="VR6JVq2bD84jiu32urEA-23" value="&lt;font style=&quot;font-size: 12px&quot;&gt;文件网关&lt;/font&gt;" style="rounded=0;whiteSpace=wrap;html=1;" vertex="1" parent="1">
          <mxGeometry x="410" y="135" width="70" height="30" as="geometry" />
        </mxCell>
        <mxCell id="VR6JVq2bD84jiu32urEA-24" value="商户平台" style="rounded=0;whiteSpace=wrap;html=1;" vertex="1" parent="1">
          <mxGeometry x="500" y="135" width="70" height="30" as="geometry" />
        </mxCell>
        <mxCell id="VR6JVq2bD84jiu32urEA-25" value="" style="rounded=0;whiteSpace=wrap;html=1;" vertex="1" parent="1">
          <mxGeometry x="120" y="180" width="150" height="90" as="geometry" />
        </mxCell>
        <mxCell id="VR6JVq2bD84jiu32urEA-26" value="" style="rounded=0;whiteSpace=wrap;html=1;" vertex="1" parent="1">
          <mxGeometry x="280" y="180" width="305" height="90" as="geometry" />
        </mxCell>
        <mxCell id="VR6JVq2bD84jiu32urEA-27" value="&lt;font style=&quot;font-size: 12px&quot;&gt;开放网关&lt;/font&gt;" style="rounded=0;whiteSpace=wrap;html=1;fillColor=none;strokeColor=none;" vertex="1" parent="1">
          <mxGeometry x="120" y="205" width="70" height="40" as="geometry" />
        </mxCell>
        <mxCell id="VR6JVq2bD84jiu32urEA-28" value="&lt;font style=&quot;font-size: 12px&quot;&gt;开放网关&lt;/font&gt;" style="rounded=0;whiteSpace=wrap;html=1;fillColor=none;strokeColor=none;" vertex="1" parent="1">
          <mxGeometry x="285" y="205" width="70" height="40" as="geometry" />
        </mxCell>
        <mxCell id="VR6JVq2bD84jiu32urEA-29" value="&lt;font style=&quot;font-size: 12px&quot;&gt;支付工具&lt;/font&gt;" style="rounded=0;whiteSpace=wrap;html=1;" vertex="1" parent="1">
          <mxGeometry x="190" y="190" width="70" height="30" as="geometry" />
        </mxCell>
        <mxCell id="VR6JVq2bD84jiu32urEA-30" value="&lt;font style=&quot;font-size: 12px&quot;&gt;额度控制&lt;/font&gt;" style="rounded=0;whiteSpace=wrap;html=1;" vertex="1" parent="1">
          <mxGeometry x="190" y="230" width="70" height="30" as="geometry" />
        </mxCell>
        <mxCell id="VR6JVq2bD84jiu32urEA-31" value="&lt;font style=&quot;font-size: 12px&quot;&gt;支付工具&lt;/font&gt;" style="rounded=0;whiteSpace=wrap;html=1;" vertex="1" parent="1">
          <mxGeometry x="349" y="190" width="70" height="30" as="geometry" />
        </mxCell>
        <mxCell id="VR6JVq2bD84jiu32urEA-32" value="&lt;font style=&quot;font-size: 12px&quot;&gt;额度控制&lt;/font&gt;" style="rounded=0;whiteSpace=wrap;html=1;" vertex="1" parent="1">
          <mxGeometry x="349" y="230" width="70" height="30" as="geometry" />
        </mxCell>
        <mxCell id="VR6JVq2bD84jiu32urEA-33" value="&lt;font style=&quot;font-size: 12px&quot;&gt;支付工具&lt;/font&gt;" style="rounded=0;whiteSpace=wrap;html=1;" vertex="1" parent="1">
          <mxGeometry x="430" y="190" width="70" height="30" as="geometry" />
        </mxCell>
        <mxCell id="VR6JVq2bD84jiu32urEA-34" value="&lt;font style=&quot;font-size: 12px&quot;&gt;额度控制&lt;/font&gt;" style="rounded=0;whiteSpace=wrap;html=1;" vertex="1" parent="1">
          <mxGeometry x="430" y="230" width="70" height="30" as="geometry" />
        </mxCell>
        <mxCell id="VR6JVq2bD84jiu32urEA-36" value="&lt;font style=&quot;font-size: 12px&quot;&gt;额度控制&lt;/font&gt;" style="rounded=0;whiteSpace=wrap;html=1;" vertex="1" parent="1">
          <mxGeometry x="510" y="190" width="70" height="30" as="geometry" />
        </mxCell>
        <mxCell id="VR6JVq2bD84jiu32urEA-39" value="&lt;font style=&quot;font-size: 12px&quot;&gt;额度控制&lt;/font&gt;" style="rounded=0;whiteSpace=wrap;html=1;" vertex="1" parent="1">
          <mxGeometry x="510" y="230" width="70" height="30" as="geometry" />
        </mxCell>
        <mxCell id="VR6JVq2bD84jiu32urEA-40" value="" style="rounded=0;whiteSpace=wrap;html=1;" vertex="1" parent="1">
          <mxGeometry x="120" y="290" width="464" height="40" as="geometry" />
        </mxCell>
        <mxCell id="VR6JVq2bD84jiu32urEA-41" value="&lt;font style=&quot;font-size: 12px&quot;&gt;核心支付&lt;/font&gt;" style="rounded=0;whiteSpace=wrap;html=1;fillColor=none;strokeColor=none;" vertex="1" parent="1">
          <mxGeometry x="120" y="290" width="70" height="40" as="geometry" />
        </mxCell>
        <mxCell id="VR6JVq2bD84jiu32urEA-42" value="&lt;font style=&quot;font-size: 12px&quot;&gt;充值&lt;/font&gt;" style="rounded=0;whiteSpace=wrap;html=1;" vertex="1" parent="1">
          <mxGeometry x="190" y="295" width="50" height="30" as="geometry" />
        </mxCell>
        <mxCell id="VR6JVq2bD84jiu32urEA-43" value="&lt;font style=&quot;font-size: 12px&quot;&gt;退款&lt;/font&gt;" style="rounded=0;whiteSpace=wrap;html=1;" vertex="1" parent="1">
          <mxGeometry x="250" y="295" width="50" height="30" as="geometry" />
        </mxCell>
        <mxCell id="VR6JVq2bD84jiu32urEA-44" value="&lt;font style=&quot;font-size: 12px&quot;&gt;提现&lt;/font&gt;" style="rounded=0;whiteSpace=wrap;html=1;" vertex="1" parent="1">
          <mxGeometry x="310" y="295" width="51" height="30" as="geometry" />
        </mxCell>
        <mxCell id="VR6JVq2bD84jiu32urEA-45" value="代付" style="rounded=0;whiteSpace=wrap;html=1;" vertex="1" parent="1">
          <mxGeometry x="370" y="295" width="50" height="30" as="geometry" />
        </mxCell>
        <mxCell id="VR6JVq2bD84jiu32urEA-46" value="&lt;font style=&quot;font-size: 12px&quot;&gt;快捷&lt;br&gt;&lt;/font&gt;" style="rounded=0;whiteSpace=wrap;html=1;" vertex="1" parent="1">
          <mxGeometry x="430" y="295" width="50" height="30" as="geometry" />
        </mxCell>
        <mxCell id="VR6JVq2bD84jiu32urEA-47" value="组合支付" style="rounded=0;whiteSpace=wrap;html=1;" vertex="1" parent="1">
          <mxGeometry x="494" y="295" width="66" height="30" as="geometry" />
        </mxCell>
      </root>
    </mxGraphModel>
  </diagram>
</mxfile>
